<?xml version="1.0" standalone="no"?>
<!DOCTYPE svg PUBLIC "-//W3C//DTD SVG 20010904//EN"
 "http://www.w3.org/TR/2001/REC-SVG-20010904/DTD/svg10.dtd">
<svg version="1.0" xmlns="http://www.w3.org/2000/svg"
 width="512.000000pt" height="512.000000pt" viewBox="0 0 512.000000 512.000000"
 preserveAspectRatio="xMidYMid meet">
<metadata>
Created by potrace 1.11, written by Peter Selinger 2001-2013
</metadata>
<g transform="translate(0.000000,512.000000) scale(0.100000,-0.100000)"
fill="#000000" stroke="none">
<path d="M965 3533 c-54 -10 -67 -16 -101 -45 -45 -40 -64 -82 -64 -143 0 -83
61 -161 142 -180 24 -6 1681 80 1754 91 l31 4 7 86 c4 47 6 87 4 89 -2 2 -379
24 -838 49 -459 25 -853 47 -875 49 -22 2 -49 2 -60 0z"/>
<path d="M4085 3489 c-456 -26 -856 -48 -887 -48 l-58 -1 0 -89 0 -89 68 -6
c37 -3 442 -27 901 -52 643 -36 843 -44 870 -35 101 30 157 150 115 249 -28
68 -71 100 -154 115 -14 2 -398 -18 -855 -44z"/>
<path d="M371 2904 c-223 -60 -365 -277 -332 -509 43 -299 365 -475 644 -351
53 24 125 78 158 120 l19 24 -117 32 c-64 17 -128 29 -142 27 -14 -3 -46 -10
-71 -17 -83 -21 -182 21 -234 101 -82 123 -36 283 99 345 79 37 162 29 232
-22 29 -22 41 -24 162 -24 72 0 131 2 131 4 0 3 -16 32 -35 65 -101 172 -317
258 -514 205z"/>
<path d="M2420 2575 c-11 -13 -73 -15 -444 -16 l-431 -1 855 -426 c749 -374
871 -438 977 -513 l122 -86 108 -6 c59 -4 324 -18 588 -32 264 -13 506 -29
537 -35 31 -6 75 -8 97 -4 l40 6 12 67 c12 69 8 291 -6 324 -6 15 -25 17 -187
17 l-180 0 2 -27 c5 -73 0 -93 -36 -133 -67 -74 -212 -107 -519 -117 -150 -4
-207 -2 -270 10 -186 36 -275 114 -306 265 l-13 64 -463 329 c-255 181 -465
329 -467 329 -2 0 -9 -7 -16 -15z"/>
</g>
</svg>
